# xmcd CD database file
#
# Track frame offsets:
#	150
#	18162
#	37805
#	52162
#	74325
#	89250
#	105487
#	128100
#	144487
#	163817
#
# Disc length: 2546 seconds
#
# Revision: 0
# Processed by: cddbd v1.5PL3 Copyright (c) Steve Scherf et al.
# Submitted via: CDex 1.51
#
DISCID=8109f00a
DTITLE=Waive - INDIES2
DYEAR=2004
DGENRE=Rock
TTITLE0=Dear
TTITLE1=わがままロミオ
TTITLE2=infection
TTITLE3=春色
TTITLE4=ドミソファイター
TTITLE5=will [INDIES 2 ver.]
TTITLE6=｢I'm home.｣
TTITLE7=いつか
TTITLE8=君と微笑おう [INDIES 2 Mix]
TTITLE9=世界がすべて沈む -pain-
EXTD=YEAR: 2004
EXTT0=
EXTT1=
EXTT2=
EXTT3=
EXTT4=
EXTT5=
EXTT6=
EXTT7=
EXTT8=
EXTT9=
PLAYORDER=
